<mxfile host="Electron" modified="2022-06-15T09:47:36.934Z" agent="5.0 (X11; Linux x86_64) AppleWebKit/537.36 (KHTML, like Gecko) draw.io/19.0.3 Chrome/102.0.5005.63 Electron/19.0.3 Safari/537.36" etag="e4w9aVHz5fV4orxu_1Cf" compressed="false" version="19.0.3" type="device" pages="5">
  <diagram id="pZMzpalFcyvGBlJ_nEnL" name="gRPC">
    <mxGraphModel dx="1422" dy="878" grid="1" gridSize="10" guides="1" tooltips="1" connect="1" arrows="1" fold="1" page="1" pageScale="1" pageWidth="850" pageHeight="1100" math="0" shadow="0">
      <root>
        <mxCell id="0" />
        <mxCell id="1" parent="0" />
        <mxCell id="Y8S6I7dp4LcuOPtQkbP_-14" value="request ip address&lt;br style=&quot;font-size: 16px;&quot;&gt;(by domain name)" style="edgeStyle=orthogonalEdgeStyle;rounded=0;orthogonalLoop=1;jettySize=auto;html=1;exitX=1;exitY=0.5;exitDx=0;exitDy=0;entryX=0;entryY=0.5;entryDx=0;entryDy=0;fontSize=16;" parent="1" source="Y8S6I7dp4LcuOPtQkbP_-8" target="Y8S6I7dp4LcuOPtQkbP_-9" edge="1">
          <mxGeometry relative="1" as="geometry" />
        </mxCell>
        <mxCell id="Y8S6I7dp4LcuOPtQkbP_-8" value="client" style="rounded=0;whiteSpace=wrap;html=1;fontSize=16;" parent="1" vertex="1">
          <mxGeometry x="100" y="220" width="60" height="60" as="geometry" />
        </mxCell>
        <mxCell id="Y8S6I7dp4LcuOPtQkbP_-9" value="Load Balancer&lt;br style=&quot;font-size: 16px&quot;&gt;(introduces usable server)" style="whiteSpace=wrap;html=1;aspect=fixed;fontSize=16;" parent="1" vertex="1">
          <mxGeometry x="315" y="195" width="110" height="110" as="geometry" />
        </mxCell>
        <mxCell id="Y8S6I7dp4LcuOPtQkbP_-21" value="load status" style="edgeStyle=none;rounded=0;orthogonalLoop=1;jettySize=auto;html=1;exitX=0;exitY=0.5;exitDx=0;exitDy=0;entryX=1;entryY=0.25;entryDx=0;entryDy=0;fontSize=16;" parent="1" source="Y8S6I7dp4LcuOPtQkbP_-10" target="Y8S6I7dp4LcuOPtQkbP_-9" edge="1">
          <mxGeometry relative="1" as="geometry" />
        </mxCell>
        <mxCell id="Y8S6I7dp4LcuOPtQkbP_-10" value="Server" style="whiteSpace=wrap;html=1;aspect=fixed;fontSize=16;" parent="1" vertex="1">
          <mxGeometry x="580" y="80" width="80" height="80" as="geometry" />
        </mxCell>
        <mxCell id="Y8S6I7dp4LcuOPtQkbP_-20" style="edgeStyle=none;rounded=0;orthogonalLoop=1;jettySize=auto;html=1;exitX=0;exitY=0.5;exitDx=0;exitDy=0;fontSize=16;" parent="1" source="Y8S6I7dp4LcuOPtQkbP_-12" target="Y8S6I7dp4LcuOPtQkbP_-9" edge="1">
          <mxGeometry relative="1" as="geometry" />
        </mxCell>
        <mxCell id="Y8S6I7dp4LcuOPtQkbP_-22" value="load status" style="edgeLabel;html=1;align=center;verticalAlign=middle;resizable=0;points=[];fontSize=16;" parent="Y8S6I7dp4LcuOPtQkbP_-20" vertex="1" connectable="0">
          <mxGeometry x="-0.1239" y="-3" relative="1" as="geometry">
            <mxPoint x="-12" y="3" as="offset" />
          </mxGeometry>
        </mxCell>
        <mxCell id="Y8S6I7dp4LcuOPtQkbP_-12" value="Server" style="whiteSpace=wrap;html=1;aspect=fixed;fontSize=16;" parent="1" vertex="1">
          <mxGeometry x="580" y="210" width="80" height="80" as="geometry" />
        </mxCell>
        <mxCell id="Y8S6I7dp4LcuOPtQkbP_-19" style="edgeStyle=none;rounded=0;orthogonalLoop=1;jettySize=auto;html=1;exitX=0;exitY=0.5;exitDx=0;exitDy=0;fontSize=16;" parent="1" source="Y8S6I7dp4LcuOPtQkbP_-13" target="Y8S6I7dp4LcuOPtQkbP_-9" edge="1">
          <mxGeometry relative="1" as="geometry" />
        </mxCell>
        <mxCell id="Y8S6I7dp4LcuOPtQkbP_-23" value="load status" style="edgeLabel;html=1;align=center;verticalAlign=middle;resizable=0;points=[];fontSize=16;" parent="Y8S6I7dp4LcuOPtQkbP_-19" vertex="1" connectable="0">
          <mxGeometry x="0.2311" y="-2" relative="1" as="geometry">
            <mxPoint x="15" y="11" as="offset" />
          </mxGeometry>
        </mxCell>
        <mxCell id="Y8S6I7dp4LcuOPtQkbP_-13" value="Server" style="whiteSpace=wrap;html=1;aspect=fixed;fontSize=16;" parent="1" vertex="1">
          <mxGeometry x="580" y="340" width="80" height="80" as="geometry" />
        </mxCell>
        <mxCell id="Y8S6I7dp4LcuOPtQkbP_-25" value="&lt;font style=&quot;font-size: 20px&quot;&gt;gRPC with HTTP/2&lt;/font&gt;" style="text;html=1;align=center;verticalAlign=middle;resizable=0;points=[];autosize=1;strokeColor=none;fillColor=none;" parent="1" vertex="1">
          <mxGeometry x="100" y="80" width="180" height="20" as="geometry" />
        </mxCell>
        <mxCell id="Y8S6I7dp4LcuOPtQkbP_-26" value="client" style="rounded=0;whiteSpace=wrap;html=1;fontSize=16;" parent="1" vertex="1">
          <mxGeometry x="100" y="620" width="60" height="60" as="geometry" />
        </mxCell>
        <mxCell id="Y8S6I7dp4LcuOPtQkbP_-27" value="Server" style="whiteSpace=wrap;html=1;aspect=fixed;fontSize=16;" parent="1" vertex="1">
          <mxGeometry x="580" y="480" width="80" height="80" as="geometry" />
        </mxCell>
        <mxCell id="Y8S6I7dp4LcuOPtQkbP_-28" value="Server" style="whiteSpace=wrap;html=1;aspect=fixed;fontSize=16;" parent="1" vertex="1">
          <mxGeometry x="580" y="610" width="80" height="80" as="geometry" />
        </mxCell>
        <mxCell id="Y8S6I7dp4LcuOPtQkbP_-29" value="Server" style="whiteSpace=wrap;html=1;aspect=fixed;fontSize=16;" parent="1" vertex="1">
          <mxGeometry x="580" y="740" width="80" height="80" as="geometry" />
        </mxCell>
        <mxCell id="Y8S6I7dp4LcuOPtQkbP_-30" value="&lt;font style=&quot;font-size: 16px;&quot;&gt;persistent connection&lt;/font&gt;" style="shape=doubleArrow;whiteSpace=wrap;html=1;fontSize=16;" parent="1" vertex="1">
          <mxGeometry x="200" y="620" width="360" height="60" as="geometry" />
        </mxCell>
        <mxCell id="Y8S6I7dp4LcuOPtQkbP_-31" value="HTTP/2" style="text;html=1;align=center;verticalAlign=middle;resizable=0;points=[];autosize=1;strokeColor=none;fillColor=none;fontSize=16;" parent="1" vertex="1">
          <mxGeometry x="345" y="620" width="70" height="20" as="geometry" />
        </mxCell>
        <mxCell id="Y8S6I7dp4LcuOPtQkbP_-34" value="" style="sketch=0;outlineConnect=0;fontColor=#232F3E;gradientColor=none;fillColor=#232F3D;strokeColor=none;dashed=0;verticalLabelPosition=bottom;verticalAlign=top;align=center;html=1;fontSize=16;fontStyle=0;aspect=fixed;pointerEvents=1;shape=mxgraph.aws4.question;" parent="1" vertex="1">
          <mxGeometry x="540" y="502" width="25.23" height="48" as="geometry" />
        </mxCell>
        <mxCell id="Y8S6I7dp4LcuOPtQkbP_-35" value="" style="sketch=0;outlineConnect=0;fontColor=#232F3E;gradientColor=none;fillColor=#232F3D;strokeColor=none;dashed=0;verticalLabelPosition=bottom;verticalAlign=top;align=center;html=1;fontSize=16;fontStyle=0;aspect=fixed;pointerEvents=1;shape=mxgraph.aws4.question;" parent="1" vertex="1">
          <mxGeometry x="540" y="756" width="25.23" height="48" as="geometry" />
        </mxCell>
        <mxCell id="Y8S6I7dp4LcuOPtQkbP_-36" value="" style="endArrow=none;dashed=1;html=1;rounded=0;fontSize=16;" parent="1" edge="1">
          <mxGeometry width="50" height="50" relative="1" as="geometry">
            <mxPoint x="100" y="450" as="sourcePoint" />
            <mxPoint x="670" y="450" as="targetPoint" />
          </mxGeometry>
        </mxCell>
        <mxCell id="y95GxXJkj-5gM8SyQpeb-1" value="" style="shape=image;verticalLabelPosition=bottom;labelBackgroundColor=default;verticalAlign=top;aspect=fixed;imageAspect=0;image=https://images.velog.io/images/gentledev10/post/0ca0a590-80d5-4536-ada0-841135ed4982/1200px-Kubernetes_logo_without_workmark.svg.png;" parent="1" vertex="1">
          <mxGeometry x="332.5" y="122.17000000000007" width="75" height="72.83" as="geometry" />
        </mxCell>
      </root>
    </mxGraphModel>
  </diagram>
  <diagram id="BGZSM9xDk1Hx7GSbYYQT" name="RabbitMQ with MQTT">
    <mxGraphModel dx="1422" dy="878" grid="1" gridSize="10" guides="1" tooltips="1" connect="1" arrows="1" fold="1" page="1" pageScale="1" pageWidth="850" pageHeight="1100" math="0" shadow="0">
      <root>
        <mxCell id="fPUhpqvsHloU7WxzUy81-0" />
        <mxCell id="fPUhpqvsHloU7WxzUy81-1" parent="fPUhpqvsHloU7WxzUy81-0" />
        <mxCell id="JR0dnT3DTXgDzijLwsy1-0" value="" style="shape=image;verticalLabelPosition=bottom;labelBackgroundColor=default;verticalAlign=top;aspect=fixed;imageAspect=0;image=https://pbs.twimg.com/profile_images/1223261138059780097/eH73w5lN_400x400.jpg;" parent="fPUhpqvsHloU7WxzUy81-1" vertex="1">
          <mxGeometry x="290" y="189" width="80" height="80" as="geometry" />
        </mxCell>
        <mxCell id="X5HLXHsFbCtur-xk8RXN-6" value="" style="group;fontSize=16;" parent="fPUhpqvsHloU7WxzUy81-1" vertex="1" connectable="0">
          <mxGeometry x="290" y="260" width="80" height="280" as="geometry" />
        </mxCell>
        <mxCell id="X5HLXHsFbCtur-xk8RXN-2" value="&lt;font style=&quot;font-size: 16px;&quot;&gt;RabbitMQ&lt;/font&gt;" style="rounded=0;whiteSpace=wrap;html=1;fontSize=16;" parent="X5HLXHsFbCtur-xk8RXN-6" vertex="1">
          <mxGeometry width="80" height="36.92" as="geometry" />
        </mxCell>
        <mxCell id="X5HLXHsFbCtur-xk8RXN-4" value="" style="rounded=0;whiteSpace=wrap;html=1;fontSize=16;" parent="X5HLXHsFbCtur-xk8RXN-6" vertex="1">
          <mxGeometry y="36.92" width="80" height="243.08" as="geometry" />
        </mxCell>
        <mxCell id="zWzy4a2cBKiZNoF9X2yt-2" value="" style="sketch=0;outlineConnect=0;fontColor=#232F3E;gradientColor=none;fillColor=#3F8624;strokeColor=none;dashed=0;verticalLabelPosition=bottom;verticalAlign=top;align=center;html=1;fontSize=12;fontStyle=0;aspect=fixed;pointerEvents=1;shape=mxgraph.aws4.topic_2;" parent="X5HLXHsFbCtur-xk8RXN-6" vertex="1">
          <mxGeometry x="23.450000000000003" y="50" width="33.10666666666666" height="48.72" as="geometry" />
        </mxCell>
        <mxCell id="zWzy4a2cBKiZNoF9X2yt-4" value="i" style="sketch=0;outlineConnect=0;fillColor=#6a00ff;strokeColor=#3700CC;dashed=0;verticalLabelPosition=bottom;verticalAlign=top;align=center;html=1;fontSize=12;fontStyle=0;aspect=fixed;pointerEvents=1;shape=mxgraph.aws4.topic_2;fontColor=#ffffff;" parent="X5HLXHsFbCtur-xk8RXN-6" vertex="1">
          <mxGeometry x="23.45000000000001" y="190" width="33.10666666666666" height="48.72" as="geometry" />
        </mxCell>
        <mxCell id="zWzy4a2cBKiZNoF9X2yt-7" value="&lt;font style=&quot;font-size: 12px&quot;&gt;client 1 specific&lt;/font&gt;" style="text;html=1;align=center;verticalAlign=middle;resizable=0;points=[];autosize=1;strokeColor=none;fillColor=none;fontSize=16;" parent="X5HLXHsFbCtur-xk8RXN-6" vertex="1">
          <mxGeometry x="-10" y="230" width="100" height="30" as="geometry" />
        </mxCell>
        <mxCell id="zWzy4a2cBKiZNoF9X2yt-8" value="shared among&lt;br&gt;clients" style="text;html=1;align=center;verticalAlign=middle;resizable=0;points=[];autosize=1;strokeColor=none;fillColor=none;fontSize=12;" parent="X5HLXHsFbCtur-xk8RXN-6" vertex="1">
          <mxGeometry x="-4.996666666666666" y="98.72" width="90" height="30" as="geometry" />
        </mxCell>
        <mxCell id="zWzy4a2cBKiZNoF9X2yt-10" value="subscribe" style="edgeStyle=orthogonalEdgeStyle;rounded=0;orthogonalLoop=1;jettySize=auto;html=1;exitX=0;exitY=0.5;exitDx=0;exitDy=0;fontSize=16;" parent="fPUhpqvsHloU7WxzUy81-1" source="OcjQA0byYEcMmSwE7Hsn-0" target="zWzy4a2cBKiZNoF9X2yt-2" edge="1">
          <mxGeometry x="0.4656" relative="1" as="geometry">
            <mxPoint x="420" y="350" as="targetPoint" />
            <Array as="points">
              <mxPoint x="450" y="240" />
              <mxPoint x="450" y="334" />
            </Array>
            <mxPoint as="offset" />
          </mxGeometry>
        </mxCell>
        <mxCell id="OcjQA0byYEcMmSwE7Hsn-0" value="Server" style="whiteSpace=wrap;html=1;aspect=fixed;fontSize=16;" parent="fPUhpqvsHloU7WxzUy81-1" vertex="1">
          <mxGeometry x="490" y="200" width="80" height="80" as="geometry" />
        </mxCell>
        <mxCell id="zWzy4a2cBKiZNoF9X2yt-14" style="edgeStyle=orthogonalEdgeStyle;rounded=0;orthogonalLoop=1;jettySize=auto;html=1;exitX=0;exitY=0.5;exitDx=0;exitDy=0;fontSize=12;endArrow=none;endFill=0;" parent="fPUhpqvsHloU7WxzUy81-1" source="OcjQA0byYEcMmSwE7Hsn-1" edge="1">
          <mxGeometry relative="1" as="geometry">
            <mxPoint x="450" y="320" as="targetPoint" />
            <Array as="points">
              <mxPoint x="450" y="370" />
              <mxPoint x="450" y="360" />
            </Array>
          </mxGeometry>
        </mxCell>
        <mxCell id="OcjQA0byYEcMmSwE7Hsn-1" value="Server" style="whiteSpace=wrap;html=1;aspect=fixed;fontSize=16;" parent="fPUhpqvsHloU7WxzUy81-1" vertex="1">
          <mxGeometry x="490" y="330" width="80" height="80" as="geometry" />
        </mxCell>
        <mxCell id="zWzy4a2cBKiZNoF9X2yt-15" style="edgeStyle=orthogonalEdgeStyle;rounded=0;orthogonalLoop=1;jettySize=auto;html=1;exitX=0;exitY=0.5;exitDx=0;exitDy=0;fontSize=12;endArrow=none;endFill=0;" parent="fPUhpqvsHloU7WxzUy81-1" source="OcjQA0byYEcMmSwE7Hsn-2" edge="1">
          <mxGeometry relative="1" as="geometry">
            <mxPoint x="450" y="370" as="targetPoint" />
          </mxGeometry>
        </mxCell>
        <mxCell id="zWzy4a2cBKiZNoF9X2yt-17" style="edgeStyle=orthogonalEdgeStyle;rounded=0;orthogonalLoop=1;jettySize=auto;html=1;exitX=0;exitY=0.75;exitDx=0;exitDy=0;fontSize=12;endArrow=classic;endFill=1;curved=1;" parent="fPUhpqvsHloU7WxzUy81-1" source="OcjQA0byYEcMmSwE7Hsn-2" target="zWzy4a2cBKiZNoF9X2yt-4" edge="1">
          <mxGeometry relative="1" as="geometry">
            <mxPoint x="390" y="610" as="targetPoint" />
            <Array as="points">
              <mxPoint x="490" y="570" />
              <mxPoint x="400" y="570" />
              <mxPoint x="400" y="474" />
            </Array>
          </mxGeometry>
        </mxCell>
        <mxCell id="zWzy4a2cBKiZNoF9X2yt-18" value="publish" style="edgeLabel;html=1;align=center;verticalAlign=middle;resizable=0;points=[];fontSize=16;" parent="zWzy4a2cBKiZNoF9X2yt-17" vertex="1" connectable="0">
          <mxGeometry x="0.2451" relative="1" as="geometry">
            <mxPoint x="10" y="10" as="offset" />
          </mxGeometry>
        </mxCell>
        <mxCell id="OcjQA0byYEcMmSwE7Hsn-2" value="Server 1" style="whiteSpace=wrap;html=1;aspect=fixed;fontSize=16;" parent="fPUhpqvsHloU7WxzUy81-1" vertex="1">
          <mxGeometry x="490" y="460" width="80" height="80" as="geometry" />
        </mxCell>
        <mxCell id="sOLjLLzbg9OTK9lXQSIT-1" value="publish" style="edgeStyle=orthogonalEdgeStyle;rounded=0;orthogonalLoop=1;jettySize=auto;html=1;exitX=1;exitY=0.25;exitDx=0;exitDy=0;fontSize=16;" parent="fPUhpqvsHloU7WxzUy81-1" source="bQRf_WcDYSLcNh3BUDJx-0" target="zWzy4a2cBKiZNoF9X2yt-2" edge="1">
          <mxGeometry x="-0.3636" relative="1" as="geometry">
            <Array as="points">
              <mxPoint x="200" y="375" />
              <mxPoint x="200" y="334" />
            </Array>
            <mxPoint as="offset" />
          </mxGeometry>
        </mxCell>
        <mxCell id="zWzy4a2cBKiZNoF9X2yt-0" value="subscribe" style="edgeStyle=orthogonalEdgeStyle;rounded=0;orthogonalLoop=1;jettySize=auto;html=1;exitX=1;exitY=0.75;exitDx=0;exitDy=0;fontSize=16;" parent="fPUhpqvsHloU7WxzUy81-1" source="bQRf_WcDYSLcNh3BUDJx-0" target="zWzy4a2cBKiZNoF9X2yt-4" edge="1">
          <mxGeometry x="-0.2427" relative="1" as="geometry">
            <mxPoint x="210" y="400.0000000000001" as="targetPoint" />
            <Array as="points">
              <mxPoint x="200" y="405" />
              <mxPoint x="200" y="474" />
            </Array>
            <mxPoint as="offset" />
          </mxGeometry>
        </mxCell>
        <mxCell id="bQRf_WcDYSLcNh3BUDJx-0" value="Client 1" style="rounded=0;whiteSpace=wrap;html=1;fontSize=16;" parent="fPUhpqvsHloU7WxzUy81-1" vertex="1">
          <mxGeometry x="100" y="358.72" width="60" height="60" as="geometry" />
        </mxCell>
        <mxCell id="sOLjLLzbg9OTK9lXQSIT-0" value="&lt;font style=&quot;font-size: 20px&quot;&gt;RabbitMQ with MQTT&lt;/font&gt;" style="text;html=1;align=center;verticalAlign=middle;resizable=0;points=[];autosize=1;strokeColor=none;fillColor=none;fontSize=16;" parent="fPUhpqvsHloU7WxzUy81-1" vertex="1">
          <mxGeometry x="60" y="195" width="210" height="30" as="geometry" />
        </mxCell>
        <mxCell id="zWzy4a2cBKiZNoF9X2yt-19" value="But, How could Server 1 know which topic to publish?" style="text;html=1;align=center;verticalAlign=middle;resizable=0;points=[];autosize=1;strokeColor=none;fillColor=none;fontSize=16;" parent="fPUhpqvsHloU7WxzUy81-1" vertex="1">
          <mxGeometry x="260" y="580" width="400" height="20" as="geometry" />
        </mxCell>
        <mxCell id="sDMSrgSQxyALSevB5RuS-1" value="" style="sketch=0;outlineConnect=0;fontColor=#232F3E;gradientColor=none;fillColor=#000000;strokeColor=none;dashed=0;verticalLabelPosition=bottom;verticalAlign=top;align=center;html=1;fontSize=12;fontStyle=0;aspect=fixed;pointerEvents=1;shape=mxgraph.aws4.topic_2;" parent="fPUhpqvsHloU7WxzUy81-1" vertex="1">
          <mxGeometry x="100" y="231.28" width="33.10666666666666" height="48.72" as="geometry" />
        </mxCell>
        <mxCell id="sDMSrgSQxyALSevB5RuS-2" value=": Topic" style="text;html=1;align=center;verticalAlign=middle;resizable=0;points=[];autosize=1;strokeColor=none;fillColor=none;fontSize=16;" parent="fPUhpqvsHloU7WxzUy81-1" vertex="1">
          <mxGeometry x="129" y="250" width="60" height="20" as="geometry" />
        </mxCell>
        <mxCell id="ZSV6snVjxpneDJZm0pZi-0" value="Server 1 got the message" style="text;html=1;align=center;verticalAlign=middle;resizable=0;points=[];autosize=1;strokeColor=none;fillColor=none;fontSize=14;" parent="fPUhpqvsHloU7WxzUy81-1" vertex="1">
          <mxGeometry x="460" y="440" width="180" height="20" as="geometry" />
        </mxCell>
        <mxCell id="h0hEfGQmcljN-gb2bb0S-0" value="&lt;font style=&quot;font-size: 20px&quot;&gt;Its bad design!&lt;/font&gt;" style="text;html=1;align=center;verticalAlign=middle;resizable=0;points=[];autosize=1;strokeColor=none;fillColor=none;" parent="fPUhpqvsHloU7WxzUy81-1" vertex="1">
          <mxGeometry x="125" y="150" width="150" height="20" as="geometry" />
        </mxCell>
        <mxCell id="_DocqgoJQ66042HQm1NW-0" value="How should they handle duplicated messages?" style="text;html=1;align=center;verticalAlign=middle;resizable=0;points=[];autosize=1;strokeColor=none;fillColor=none;fontSize=20;" parent="fPUhpqvsHloU7WxzUy81-1" vertex="1">
          <mxGeometry x="300" y="160" width="430" height="30" as="geometry" />
        </mxCell>
      </root>
    </mxGraphModel>
  </diagram>
  <diagram id="ybN7N0F_XyDpnS5tdTKa" name="RabbitMQ with AMQP">
    <mxGraphModel dx="1422" dy="878" grid="1" gridSize="10" guides="1" tooltips="1" connect="1" arrows="1" fold="1" page="1" pageScale="1" pageWidth="850" pageHeight="1100" math="0" shadow="0">
      <root>
        <mxCell id="uX9fWeqp3Ss9qC5hcEFZ-0" />
        <mxCell id="uX9fWeqp3Ss9qC5hcEFZ-1" parent="uX9fWeqp3Ss9qC5hcEFZ-0" />
        <mxCell id="TB9XXTcWBuiMeb2xU0fO-0" value="" style="shape=image;verticalLabelPosition=bottom;labelBackgroundColor=default;verticalAlign=top;aspect=fixed;imageAspect=0;image=https://pbs.twimg.com/profile_images/1223261138059780097/eH73w5lN_400x400.jpg;" parent="uX9fWeqp3Ss9qC5hcEFZ-1" vertex="1">
          <mxGeometry x="294" y="189" width="80" height="80" as="geometry" />
        </mxCell>
        <mxCell id="rgvbTDr6kIV6-D15mT2s-17" value="Client 1" style="rounded=0;whiteSpace=wrap;html=1;fontSize=16;" parent="uX9fWeqp3Ss9qC5hcEFZ-1" vertex="1">
          <mxGeometry x="80" y="360" width="60" height="60" as="geometry" />
        </mxCell>
        <mxCell id="rgvbTDr6kIV6-D15mT2s-18" value="&lt;font style=&quot;font-size: 20px&quot;&gt;RabbitMQ with AMQP&lt;/font&gt;" style="text;html=1;align=center;verticalAlign=middle;resizable=0;points=[];autosize=1;strokeColor=none;fillColor=none;fontSize=16;" parent="uX9fWeqp3Ss9qC5hcEFZ-1" vertex="1">
          <mxGeometry x="60" y="195" width="210" height="30" as="geometry" />
        </mxCell>
        <mxCell id="3VOwiBKvVJcSsdyQZ6k--2" value="" style="shape=cylinder3;whiteSpace=wrap;html=1;boundedLbl=1;backgroundOutline=1;size=3.310344827586107;fontSize=16;rotation=-90;" parent="uX9fWeqp3Ss9qC5hcEFZ-1" vertex="1">
          <mxGeometry x="100" y="230" width="20" height="70" as="geometry" />
        </mxCell>
        <mxCell id="3VOwiBKvVJcSsdyQZ6k--3" value=": MSG Queue" style="text;html=1;align=center;verticalAlign=middle;resizable=0;points=[];autosize=1;strokeColor=none;fillColor=none;fontSize=16;" parent="uX9fWeqp3Ss9qC5hcEFZ-1" vertex="1">
          <mxGeometry x="140" y="255" width="110" height="20" as="geometry" />
        </mxCell>
        <mxCell id="1SxMYPRS9nRHO50qyZcN-14" value="" style="group" parent="uX9fWeqp3Ss9qC5hcEFZ-1" vertex="1" connectable="0">
          <mxGeometry x="290" y="260" width="95" height="280" as="geometry" />
        </mxCell>
        <mxCell id="d1JB4Ug14ZQOjBqafoT9-1" value="&lt;font style=&quot;font-size: 16px;&quot;&gt;RabbitMQ&lt;/font&gt;" style="rounded=0;whiteSpace=wrap;html=1;fontSize=16;" parent="1SxMYPRS9nRHO50qyZcN-14" vertex="1">
          <mxGeometry width="90" height="36.92" as="geometry" />
        </mxCell>
        <mxCell id="d1JB4Ug14ZQOjBqafoT9-2" value="" style="rounded=0;whiteSpace=wrap;html=1;fontSize=16;" parent="1SxMYPRS9nRHO50qyZcN-14" vertex="1">
          <mxGeometry y="36.92" width="90" height="243.08" as="geometry" />
        </mxCell>
        <mxCell id="d1JB4Ug14ZQOjBqafoT9-6" value="shared among&lt;br&gt;clients" style="text;html=1;align=center;verticalAlign=middle;resizable=0;points=[];autosize=1;strokeColor=none;fillColor=none;fontSize=12;" parent="1SxMYPRS9nRHO50qyZcN-14" vertex="1">
          <mxGeometry x="0.0033333333333338544" y="80" width="90" height="30" as="geometry" />
        </mxCell>
        <mxCell id="d1JB4Ug14ZQOjBqafoT9-5" value="&lt;font style=&quot;font-size: 12px&quot;&gt;client 1 specific&lt;/font&gt;" style="text;html=1;align=center;verticalAlign=middle;resizable=0;points=[];autosize=1;strokeColor=none;fillColor=none;fontSize=16;" parent="1SxMYPRS9nRHO50qyZcN-14" vertex="1">
          <mxGeometry x="-5" y="215" width="100" height="30" as="geometry" />
        </mxCell>
        <mxCell id="1SxMYPRS9nRHO50qyZcN-8" style="edgeStyle=orthogonalEdgeStyle;rounded=0;orthogonalLoop=1;jettySize=auto;html=1;exitX=0.5;exitY=1;exitDx=0;exitDy=0;exitPerimeter=0;entryX=0;entryY=0.5;entryDx=0;entryDy=0;fontSize=14;endArrow=classic;endFill=1;" parent="uX9fWeqp3Ss9qC5hcEFZ-1" source="3VOwiBKvVJcSsdyQZ6k--0" target="1SxMYPRS9nRHO50qyZcN-1" edge="1">
          <mxGeometry relative="1" as="geometry" />
        </mxCell>
        <mxCell id="1SxMYPRS9nRHO50qyZcN-9" style="edgeStyle=orthogonalEdgeStyle;rounded=0;orthogonalLoop=1;jettySize=auto;html=1;exitX=0.5;exitY=1;exitDx=0;exitDy=0;exitPerimeter=0;entryX=-0.009;entryY=0.554;entryDx=0;entryDy=0;entryPerimeter=0;fontSize=14;endArrow=classic;endFill=1;" parent="uX9fWeqp3Ss9qC5hcEFZ-1" source="3VOwiBKvVJcSsdyQZ6k--0" target="1SxMYPRS9nRHO50qyZcN-3" edge="1">
          <mxGeometry relative="1" as="geometry" />
        </mxCell>
        <mxCell id="1SxMYPRS9nRHO50qyZcN-10" style="edgeStyle=orthogonalEdgeStyle;rounded=0;orthogonalLoop=1;jettySize=auto;html=1;exitX=0.5;exitY=1;exitDx=0;exitDy=0;exitPerimeter=0;fontSize=14;endArrow=classic;endFill=1;" parent="uX9fWeqp3Ss9qC5hcEFZ-1" source="3VOwiBKvVJcSsdyQZ6k--0" target="1SxMYPRS9nRHO50qyZcN-5" edge="1">
          <mxGeometry relative="1" as="geometry">
            <Array as="points">
              <mxPoint x="440" y="327" />
              <mxPoint x="440" y="440" />
              <mxPoint x="553" y="440" />
            </Array>
          </mxGeometry>
        </mxCell>
        <mxCell id="1SxMYPRS9nRHO50qyZcN-11" value="subscribe" style="edgeLabel;html=1;align=center;verticalAlign=middle;resizable=0;points=[];fontSize=14;" parent="1SxMYPRS9nRHO50qyZcN-10" vertex="1" connectable="0">
          <mxGeometry x="-0.7049" y="1" relative="1" as="geometry">
            <mxPoint as="offset" />
          </mxGeometry>
        </mxCell>
        <mxCell id="3VOwiBKvVJcSsdyQZ6k--0" value="" style="shape=cylinder3;whiteSpace=wrap;html=1;boundedLbl=1;backgroundOutline=1;size=3.310344827586107;fontSize=16;fillColor=#60a917;rotation=-90;fontColor=#ffffff;strokeColor=#2D7600;" parent="uX9fWeqp3Ss9qC5hcEFZ-1" vertex="1">
          <mxGeometry x="320" y="291.92" width="20" height="70" as="geometry" />
        </mxCell>
        <mxCell id="3VOwiBKvVJcSsdyQZ6k--1" value="" style="shape=cylinder3;whiteSpace=wrap;html=1;boundedLbl=1;backgroundOutline=1;size=3.310344827586107;fontSize=16;fillColor=#0050ef;rotation=-90;fontColor=#ffffff;strokeColor=#001DBC;" parent="uX9fWeqp3Ss9qC5hcEFZ-1" vertex="1">
          <mxGeometry x="320" y="435" width="20" height="70" as="geometry" />
        </mxCell>
        <mxCell id="01AWSQgsTqR5LjwadqPv-2" value="XXX" style="text;html=1;align=center;verticalAlign=middle;resizable=0;points=[];autosize=1;strokeColor=none;fillColor=none;fontSize=14;" parent="uX9fWeqp3Ss9qC5hcEFZ-1" vertex="1">
          <mxGeometry x="310" y="465" width="40" height="20" as="geometry" />
        </mxCell>
        <mxCell id="1SxMYPRS9nRHO50qyZcN-1" value="Server" style="whiteSpace=wrap;html=1;aspect=fixed;fontSize=16;" parent="uX9fWeqp3Ss9qC5hcEFZ-1" vertex="1">
          <mxGeometry x="513.44" y="210" width="80" height="80" as="geometry" />
        </mxCell>
        <mxCell id="1SxMYPRS9nRHO50qyZcN-3" value="Server" style="whiteSpace=wrap;html=1;aspect=fixed;fontSize=16;" parent="uX9fWeqp3Ss9qC5hcEFZ-1" vertex="1">
          <mxGeometry x="513.44" y="340" width="80" height="80" as="geometry" />
        </mxCell>
        <mxCell id="1SxMYPRS9nRHO50qyZcN-6" value="correlation_id=abc" style="edgeStyle=orthogonalEdgeStyle;rounded=0;orthogonalLoop=1;jettySize=auto;html=1;exitX=0;exitY=0.75;exitDx=0;exitDy=0;fontSize=14;endArrow=classic;endFill=1;" parent="uX9fWeqp3Ss9qC5hcEFZ-1" source="1SxMYPRS9nRHO50qyZcN-5" target="3VOwiBKvVJcSsdyQZ6k--1" edge="1">
          <mxGeometry relative="1" as="geometry" />
        </mxCell>
        <mxCell id="1SxMYPRS9nRHO50qyZcN-5" value="Server 1" style="whiteSpace=wrap;html=1;aspect=fixed;fontSize=16;" parent="uX9fWeqp3Ss9qC5hcEFZ-1" vertex="1">
          <mxGeometry x="513.44" y="470" width="80" height="80" as="geometry" />
        </mxCell>
        <mxCell id="01AWSQgsTqR5LjwadqPv-1" value="&lt;font style=&quot;font-size: 14px&quot;&gt;request&lt;br&gt;reply_to=XXX&lt;br&gt;correlation_id=abc&lt;/font&gt;" style="edgeStyle=orthogonalEdgeStyle;rounded=0;orthogonalLoop=1;jettySize=auto;html=1;exitX=1;exitY=0.5;exitDx=0;exitDy=0;fontSize=16;endArrow=classic;endFill=1;" parent="uX9fWeqp3Ss9qC5hcEFZ-1" source="rgvbTDr6kIV6-D15mT2s-17" edge="1">
          <mxGeometry relative="1" as="geometry">
            <mxPoint x="296" y="327" as="targetPoint" />
            <Array as="points">
              <mxPoint x="217" y="390" />
              <mxPoint x="217" y="327" />
              <mxPoint x="296" y="327" />
            </Array>
          </mxGeometry>
        </mxCell>
        <mxCell id="1SxMYPRS9nRHO50qyZcN-12" value="correlation_id=abc" style="edgeStyle=orthogonalEdgeStyle;rounded=0;orthogonalLoop=1;jettySize=auto;html=1;exitX=0.5;exitY=0;exitDx=0;exitDy=0;exitPerimeter=0;entryX=0.75;entryY=1;entryDx=0;entryDy=0;fontSize=14;endArrow=classic;endFill=1;" parent="uX9fWeqp3Ss9qC5hcEFZ-1" source="3VOwiBKvVJcSsdyQZ6k--1" target="rgvbTDr6kIV6-D15mT2s-17" edge="1">
          <mxGeometry x="-0.2273" relative="1" as="geometry">
            <mxPoint as="offset" />
          </mxGeometry>
        </mxCell>
        <mxCell id="R6D3P67MghuKUqAjE_LG-0" value="Server 1 got the message" style="text;html=1;align=center;verticalAlign=middle;resizable=0;points=[];autosize=1;strokeColor=none;fillColor=none;fontSize=14;" parent="uX9fWeqp3Ss9qC5hcEFZ-1" vertex="1">
          <mxGeometry x="463.44" y="550" width="180" height="20" as="geometry" />
        </mxCell>
      </root>
    </mxGraphModel>
  </diagram>
  <diagram id="WlDlHFRfh14akYULtn54" name="RabbitMQ with MQTT and AMQP">
    <mxGraphModel dx="1422" dy="878" grid="1" gridSize="10" guides="1" tooltips="1" connect="1" arrows="1" fold="1" page="1" pageScale="1" pageWidth="850" pageHeight="1100" math="0" shadow="0">
      <root>
        <mxCell id="PTFJPUzI5AoDLVyjd54f-0" />
        <mxCell id="PTFJPUzI5AoDLVyjd54f-1" parent="PTFJPUzI5AoDLVyjd54f-0" />
        <mxCell id="6-yz39EAGJhGq4BGlqXT-2" value="" style="rounded=0;whiteSpace=wrap;html=1;fontSize=16;" parent="PTFJPUzI5AoDLVyjd54f-1" vertex="1">
          <mxGeometry x="250" y="296.92" width="280" height="243.08" as="geometry" />
        </mxCell>
        <mxCell id="S_bIVR-aBc5FR8YJwCnY-0" value="" style="shape=image;verticalLabelPosition=bottom;labelBackgroundColor=default;verticalAlign=top;aspect=fixed;imageAspect=0;image=https://pbs.twimg.com/profile_images/1223261138059780097/eH73w5lN_400x400.jpg;" parent="PTFJPUzI5AoDLVyjd54f-1" vertex="1">
          <mxGeometry x="346.56" y="190" width="80" height="80" as="geometry" />
        </mxCell>
        <mxCell id="jvaqID3r4B-DmBm5HL8R-0" value="Client 1" style="rounded=0;whiteSpace=wrap;html=1;fontSize=16;" parent="PTFJPUzI5AoDLVyjd54f-1" vertex="1">
          <mxGeometry x="80" y="360" width="60" height="60" as="geometry" />
        </mxCell>
        <mxCell id="jvaqID3r4B-DmBm5HL8R-1" value="&lt;font style=&quot;font-size: 20px&quot;&gt;RabbitMQ with AMQP &amp;amp; MQTT&lt;/font&gt;" style="text;html=1;align=center;verticalAlign=middle;resizable=0;points=[];autosize=1;strokeColor=none;fillColor=none;fontSize=16;" parent="PTFJPUzI5AoDLVyjd54f-1" vertex="1">
          <mxGeometry x="60" y="195" width="290" height="30" as="geometry" />
        </mxCell>
        <mxCell id="jvaqID3r4B-DmBm5HL8R-2" value="" style="shape=cylinder3;whiteSpace=wrap;html=1;boundedLbl=1;backgroundOutline=1;size=3.310344827586107;fontSize=16;rotation=-90;" parent="PTFJPUzI5AoDLVyjd54f-1" vertex="1">
          <mxGeometry x="100" y="230" width="20" height="70" as="geometry" />
        </mxCell>
        <mxCell id="jvaqID3r4B-DmBm5HL8R-3" value=": MSG Queue" style="text;html=1;align=center;verticalAlign=middle;resizable=0;points=[];autosize=1;strokeColor=none;fillColor=none;fontSize=16;container=1;" parent="PTFJPUzI5AoDLVyjd54f-1" vertex="1">
          <mxGeometry x="140" y="255" width="110" height="20" as="geometry" />
        </mxCell>
        <mxCell id="jvaqID3r4B-DmBm5HL8R-9" style="edgeStyle=orthogonalEdgeStyle;rounded=0;orthogonalLoop=1;jettySize=auto;html=1;exitX=0.449;exitY=1.008;exitDx=0;exitDy=0;exitPerimeter=0;entryX=0;entryY=0.5;entryDx=0;entryDy=0;fontSize=14;endArrow=classic;endFill=1;" parent="PTFJPUzI5AoDLVyjd54f-1" source="jvaqID3r4B-DmBm5HL8R-13" target="jvaqID3r4B-DmBm5HL8R-16" edge="1">
          <mxGeometry relative="1" as="geometry">
            <mxPoint x="485" y="326.9200000000002" as="sourcePoint" />
          </mxGeometry>
        </mxCell>
        <mxCell id="jvaqID3r4B-DmBm5HL8R-10" style="edgeStyle=orthogonalEdgeStyle;rounded=0;orthogonalLoop=1;jettySize=auto;html=1;exitX=0.449;exitY=0.998;exitDx=0;exitDy=0;exitPerimeter=0;entryX=-0.009;entryY=0.554;entryDx=0;entryDy=0;entryPerimeter=0;fontSize=14;endArrow=classic;endFill=1;" parent="PTFJPUzI5AoDLVyjd54f-1" source="jvaqID3r4B-DmBm5HL8R-13" target="jvaqID3r4B-DmBm5HL8R-17" edge="1">
          <mxGeometry relative="1" as="geometry">
            <mxPoint x="485" y="326.9200000000002" as="sourcePoint" />
          </mxGeometry>
        </mxCell>
        <mxCell id="jvaqID3r4B-DmBm5HL8R-11" style="edgeStyle=orthogonalEdgeStyle;rounded=0;orthogonalLoop=1;jettySize=auto;html=1;exitX=0.443;exitY=1;exitDx=0;exitDy=0;exitPerimeter=0;fontSize=14;endArrow=classic;endFill=1;" parent="PTFJPUzI5AoDLVyjd54f-1" edge="1">
          <mxGeometry relative="1" as="geometry">
            <Array as="points">
              <mxPoint x="574" y="326" />
              <mxPoint x="574" y="440" />
              <mxPoint x="677" y="440" />
            </Array>
            <mxPoint x="519" y="326.14" as="sourcePoint" />
            <mxPoint x="677" y="470" as="targetPoint" />
          </mxGeometry>
        </mxCell>
        <mxCell id="jvaqID3r4B-DmBm5HL8R-12" value="subscribe" style="edgeLabel;html=1;align=center;verticalAlign=middle;resizable=0;points=[];fontSize=14;" parent="jvaqID3r4B-DmBm5HL8R-11" vertex="1" connectable="0">
          <mxGeometry x="-0.7049" y="1" relative="1" as="geometry">
            <mxPoint x="16" as="offset" />
          </mxGeometry>
        </mxCell>
        <mxCell id="jvaqID3r4B-DmBm5HL8R-16" value="Server" style="whiteSpace=wrap;html=1;aspect=fixed;fontSize=16;" parent="PTFJPUzI5AoDLVyjd54f-1" vertex="1">
          <mxGeometry x="633.44" y="210" width="80" height="80" as="geometry" />
        </mxCell>
        <mxCell id="jvaqID3r4B-DmBm5HL8R-17" value="Server" style="whiteSpace=wrap;html=1;aspect=fixed;fontSize=16;" parent="PTFJPUzI5AoDLVyjd54f-1" vertex="1">
          <mxGeometry x="633.44" y="340" width="80" height="80" as="geometry" />
        </mxCell>
        <mxCell id="jvaqID3r4B-DmBm5HL8R-18" value="publish" style="rounded=0;orthogonalLoop=1;jettySize=auto;html=1;exitX=0;exitY=0.75;exitDx=0;exitDy=0;fontSize=14;endArrow=classic;endFill=1;entryX=1;entryY=0.75;entryDx=0;entryDy=0;" parent="PTFJPUzI5AoDLVyjd54f-1" source="jvaqID3r4B-DmBm5HL8R-19" target="fJr963Anme0TQbOgjC7u-2" edge="1">
          <mxGeometry x="-0.3966" relative="1" as="geometry">
            <mxPoint x="418.28427124746213" y="428.28427124746213" as="targetPoint" />
            <mxPoint as="offset" />
          </mxGeometry>
        </mxCell>
        <mxCell id="jvaqID3r4B-DmBm5HL8R-19" value="Server 1" style="whiteSpace=wrap;html=1;aspect=fixed;fontSize=16;" parent="PTFJPUzI5AoDLVyjd54f-1" vertex="1">
          <mxGeometry x="633.44" y="470" width="80" height="80" as="geometry" />
        </mxCell>
        <mxCell id="jvaqID3r4B-DmBm5HL8R-20" value="publish" style="edgeStyle=orthogonalEdgeStyle;rounded=0;orthogonalLoop=1;jettySize=auto;html=1;exitX=1;exitY=0.5;exitDx=0;exitDy=0;fontSize=16;endArrow=classic;endFill=1;entryX=-0.072;entryY=0.541;entryDx=0;entryDy=0;entryPerimeter=0;" parent="PTFJPUzI5AoDLVyjd54f-1" source="jvaqID3r4B-DmBm5HL8R-0" target="vlVcAdXJxOVDuy625WgN-23" edge="1">
          <mxGeometry relative="1" as="geometry">
            <mxPoint x="296" y="327" as="targetPoint" />
            <Array as="points">
              <mxPoint x="217" y="390" />
              <mxPoint x="217" y="327" />
            </Array>
          </mxGeometry>
        </mxCell>
        <mxCell id="jvaqID3r4B-DmBm5HL8R-22" value="Server 1 got the message" style="text;html=1;align=center;verticalAlign=middle;resizable=0;points=[];autosize=1;strokeColor=none;fillColor=none;fontSize=14;" parent="PTFJPUzI5AoDLVyjd54f-1" vertex="1">
          <mxGeometry x="570" y="550" width="180" height="20" as="geometry" />
        </mxCell>
        <mxCell id="vlVcAdXJxOVDuy625WgN-24" value="" style="sketch=0;outlineConnect=0;fontColor=#232F3E;gradientColor=none;fillColor=#000000;strokeColor=none;dashed=0;verticalLabelPosition=bottom;verticalAlign=top;align=center;html=1;fontSize=12;fontStyle=0;aspect=fixed;pointerEvents=1;shape=mxgraph.aws4.topic_2;" parent="PTFJPUzI5AoDLVyjd54f-1" vertex="1">
          <mxGeometry x="80" y="290" width="33.10666666666666" height="48.72" as="geometry" />
        </mxCell>
        <mxCell id="vlVcAdXJxOVDuy625WgN-25" value=": Topic" style="text;html=1;align=center;verticalAlign=middle;resizable=0;points=[];autosize=1;strokeColor=none;fillColor=none;fontSize=16;" parent="PTFJPUzI5AoDLVyjd54f-1" vertex="1">
          <mxGeometry x="109" y="308.72" width="60" height="20" as="geometry" />
        </mxCell>
        <mxCell id="gZVZd3LLG6UUTHU1FVaA-2" value="&lt;font style=&quot;font-size: 14px;&quot;&gt;subscribe&lt;/font&gt;" style="edgeStyle=orthogonalEdgeStyle;rounded=0;orthogonalLoop=1;jettySize=auto;html=1;entryX=0.5;entryY=1;entryDx=0;entryDy=0;" parent="PTFJPUzI5AoDLVyjd54f-1" source="gZVZd3LLG6UUTHU1FVaA-0" target="jvaqID3r4B-DmBm5HL8R-0" edge="1">
          <mxGeometry relative="1" as="geometry">
            <mxPoint x="233.44999999999993" y="474.36" as="targetPoint" />
          </mxGeometry>
        </mxCell>
        <mxCell id="gZVZd3LLG6UUTHU1FVaA-0" value="i" style="sketch=0;outlineConnect=0;fillColor=#6a00ff;strokeColor=#3700CC;dashed=0;verticalLabelPosition=bottom;verticalAlign=top;align=center;html=1;fontSize=12;fontStyle=0;aspect=fixed;pointerEvents=1;shape=mxgraph.aws4.topic_2;fontColor=#ffffff;" parent="PTFJPUzI5AoDLVyjd54f-1" vertex="1">
          <mxGeometry x="287.45" y="450" width="33.10666666666666" height="48.72" as="geometry" />
        </mxCell>
        <mxCell id="fJr963Anme0TQbOgjC7u-5" style="edgeStyle=none;rounded=0;orthogonalLoop=1;jettySize=auto;html=1;exitX=0;exitY=0.75;exitDx=0;exitDy=0;fontSize=14;" parent="PTFJPUzI5AoDLVyjd54f-1" source="fJr963Anme0TQbOgjC7u-2" target="gZVZd3LLG6UUTHU1FVaA-0" edge="1">
          <mxGeometry relative="1" as="geometry" />
        </mxCell>
        <mxCell id="6-yz39EAGJhGq4BGlqXT-1" value="&lt;font style=&quot;font-size: 16px;&quot;&gt;RabbitMQ&lt;/font&gt;" style="rounded=0;whiteSpace=wrap;html=1;fontSize=16;" parent="PTFJPUzI5AoDLVyjd54f-1" vertex="1">
          <mxGeometry x="250" y="260" width="280" height="36.92" as="geometry" />
        </mxCell>
        <mxCell id="fJr963Anme0TQbOgjC7u-2" value="Exchange&lt;br&gt;Between&lt;br&gt;MQTT &amp;amp;&lt;br&gt;AMQP&lt;br&gt;(amq.topic)" style="rounded=0;whiteSpace=wrap;html=1;fillColor=#fff2cc;strokeColor=#d6b656;" parent="PTFJPUzI5AoDLVyjd54f-1" vertex="1">
          <mxGeometry x="350" y="296.92" width="70" height="243.08" as="geometry" />
        </mxCell>
        <mxCell id="jvaqID3r4B-DmBm5HL8R-13" value="" style="shape=cylinder3;whiteSpace=wrap;html=1;boundedLbl=1;backgroundOutline=1;size=3.310344827586107;fontSize=16;fillColor=#60a917;rotation=-90;fontColor=#ffffff;strokeColor=#2D7600;" parent="PTFJPUzI5AoDLVyjd54f-1" vertex="1">
          <mxGeometry x="470" y="290" width="20" height="70" as="geometry" />
        </mxCell>
        <mxCell id="jvaqID3r4B-DmBm5HL8R-7" value="shared among&lt;br&gt;clients" style="text;html=1;align=center;verticalAlign=middle;resizable=0;points=[];autosize=1;strokeColor=none;fillColor=none;fontSize=12;" parent="PTFJPUzI5AoDLVyjd54f-1" vertex="1">
          <mxGeometry x="434.9973684210526" y="340" width="90" height="30" as="geometry" />
        </mxCell>
        <mxCell id="vlVcAdXJxOVDuy625WgN-23" value="" style="sketch=0;outlineConnect=0;fontColor=#232F3E;gradientColor=none;fillColor=#3F8624;strokeColor=none;dashed=0;verticalLabelPosition=bottom;verticalAlign=top;align=center;html=1;fontSize=12;fontStyle=0;aspect=fixed;pointerEvents=1;shape=mxgraph.aws4.topic_2;" parent="PTFJPUzI5AoDLVyjd54f-1" vertex="1">
          <mxGeometry x="280" y="300.64" width="33.10666666666666" height="48.72" as="geometry" />
        </mxCell>
        <mxCell id="vlVcAdXJxOVDuy625WgN-26" value="" style="rounded=0;orthogonalLoop=1;jettySize=auto;html=1;entryX=0;entryY=0.5;entryDx=0;entryDy=0;" parent="PTFJPUzI5AoDLVyjd54f-1" source="vlVcAdXJxOVDuy625WgN-23" target="fJr963Anme0TQbOgjC7u-7" edge="1">
          <mxGeometry relative="1" as="geometry">
            <mxPoint x="360" y="325" as="targetPoint" />
          </mxGeometry>
        </mxCell>
        <mxCell id="jvaqID3r4B-DmBm5HL8R-8" value="&lt;font style=&quot;font-size: 12px&quot;&gt;client 1 specific&lt;/font&gt;" style="text;html=1;align=center;verticalAlign=middle;resizable=0;points=[];autosize=1;strokeColor=none;fillColor=none;fontSize=16;" parent="PTFJPUzI5AoDLVyjd54f-1" vertex="1">
          <mxGeometry x="252.9973684210526" y="490" width="100" height="30" as="geometry" />
        </mxCell>
        <mxCell id="fJr963Anme0TQbOgjC7u-6" value="" style="endArrow=classic;html=1;rounded=0;fontSize=14;entryX=0.5;entryY=0;entryDx=0;entryDy=0;entryPerimeter=0;exitX=0.987;exitY=0.117;exitDx=0;exitDy=0;exitPerimeter=0;" parent="PTFJPUzI5AoDLVyjd54f-1" source="fJr963Anme0TQbOgjC7u-2" target="jvaqID3r4B-DmBm5HL8R-13" edge="1">
          <mxGeometry width="50" height="50" relative="1" as="geometry">
            <mxPoint x="380" y="420" as="sourcePoint" />
            <mxPoint x="430" y="370" as="targetPoint" />
          </mxGeometry>
        </mxCell>
        <mxCell id="fJr963Anme0TQbOgjC7u-7" value="forward" style="rounded=1;whiteSpace=wrap;html=1;fontSize=14;" parent="PTFJPUzI5AoDLVyjd54f-1" vertex="1">
          <mxGeometry x="350" y="315" width="69.5" height="20" as="geometry" />
        </mxCell>
        <mxCell id="fJr963Anme0TQbOgjC7u-8" value="forward" style="rounded=1;whiteSpace=wrap;html=1;fontSize=14;" parent="PTFJPUzI5AoDLVyjd54f-1" vertex="1">
          <mxGeometry x="350" y="470" width="69.5" height="20" as="geometry" />
        </mxCell>
      </root>
    </mxGraphModel>
  </diagram>
  <diagram id="yVE5GR6siYnJ2kHPG4qg" name="Apach Kafka">
    <mxGraphModel dx="1422" dy="878" grid="1" gridSize="10" guides="1" tooltips="1" connect="1" arrows="1" fold="1" page="1" pageScale="1" pageWidth="850" pageHeight="1100" math="0" shadow="0">
      <root>
        <mxCell id="Ns2UMeAKsRZ49Lcyyu3y-0" />
        <mxCell id="Ns2UMeAKsRZ49Lcyyu3y-1" parent="Ns2UMeAKsRZ49Lcyyu3y-0" />
        <mxCell id="a59D_WhTs-mvnQTqEzZh-12" value="" style="shape=image;verticalLabelPosition=bottom;labelBackgroundColor=default;verticalAlign=top;aspect=fixed;imageAspect=0;image=https://s3.ap-south-1.amazonaws.com/townscript-production/images/8f3d2aff-061d-4890-8846-02b1198c4808.jpg;" parent="Ns2UMeAKsRZ49Lcyyu3y-1" vertex="1">
          <mxGeometry x="284.12" y="71.91" width="146.91" height="82.78" as="geometry" />
        </mxCell>
        <mxCell id="4l1yy5Mn1jNInfXvyx_c-45" value="" style="rounded=0;whiteSpace=wrap;html=1;fontSize=16;" parent="Ns2UMeAKsRZ49Lcyyu3y-1" vertex="1">
          <mxGeometry x="270" y="144.69" width="170" height="195.31" as="geometry" />
        </mxCell>
        <mxCell id="AGWRHIvVmaDSw_wE6bLP-3" value="" style="rounded=1;whiteSpace=wrap;html=1;fontSize=16;" parent="Ns2UMeAKsRZ49Lcyyu3y-1" vertex="1">
          <mxGeometry x="300" y="176.29" width="110" height="146.81" as="geometry" />
        </mxCell>
        <mxCell id="a59D_WhTs-mvnQTqEzZh-4" value="" style="rounded=0;whiteSpace=wrap;html=1;fontSize=16;" parent="Ns2UMeAKsRZ49Lcyyu3y-1" vertex="1">
          <mxGeometry x="515" y="84.69" width="170" height="340" as="geometry" />
        </mxCell>
        <mxCell id="4l1yy5Mn1jNInfXvyx_c-27" value="&lt;span style=&quot;font-size: 20px&quot;&gt;Apach Kafka &amp;amp; MQTT broker&lt;/span&gt;" style="text;html=1;align=center;verticalAlign=middle;resizable=0;points=[];autosize=1;strokeColor=none;fillColor=none;fontSize=16;" parent="Ns2UMeAKsRZ49Lcyyu3y-1" vertex="1">
          <mxGeometry x="62.57" y="40" width="270" height="30" as="geometry" />
        </mxCell>
        <mxCell id="4l1yy5Mn1jNInfXvyx_c-44" value="produce" style="edgeStyle=orthogonalEdgeStyle;rounded=0;orthogonalLoop=1;jettySize=auto;html=1;exitX=1;exitY=0.5;exitDx=0;exitDy=0;fontSize=16;" parent="Ns2UMeAKsRZ49Lcyyu3y-1" source="4l1yy5Mn1jNInfXvyx_c-28" edge="1">
          <mxGeometry relative="1" as="geometry">
            <mxPoint x="299" y="249.72413793103453" as="targetPoint" />
            <Array as="points">
              <mxPoint x="260" y="249.69" />
              <mxPoint x="260" y="249.69" />
            </Array>
          </mxGeometry>
        </mxCell>
        <mxCell id="4l1yy5Mn1jNInfXvyx_c-28" value="Client 1" style="rounded=0;whiteSpace=wrap;html=1;fontSize=16;" parent="Ns2UMeAKsRZ49Lcyyu3y-1" vertex="1">
          <mxGeometry x="80" y="214.69" width="70" height="70" as="geometry" />
        </mxCell>
        <mxCell id="4l1yy5Mn1jNInfXvyx_c-42" value="consume" style="edgeStyle=orthogonalEdgeStyle;rounded=0;orthogonalLoop=1;jettySize=auto;html=1;exitX=0.5;exitY=1;exitDx=0;exitDy=0;exitPerimeter=0;entryX=0;entryY=0.5;entryDx=0;entryDy=0;fontSize=16;" parent="Ns2UMeAKsRZ49Lcyyu3y-1" source="4l1yy5Mn1jNInfXvyx_c-29" target="4l1yy5Mn1jNInfXvyx_c-36" edge="1">
          <mxGeometry relative="1" as="geometry" />
        </mxCell>
        <mxCell id="4l1yy5Mn1jNInfXvyx_c-29" value="" style="shape=cylinder3;whiteSpace=wrap;html=1;boundedLbl=1;backgroundOutline=1;size=3.310344827586107;fontSize=16;rotation=-90;horizontal=1;" parent="Ns2UMeAKsRZ49Lcyyu3y-1" vertex="1">
          <mxGeometry x="347.57" y="194.69" width="20" height="70" as="geometry" />
        </mxCell>
        <mxCell id="4l1yy5Mn1jNInfXvyx_c-40" value="consume" style="edgeStyle=orthogonalEdgeStyle;rounded=0;orthogonalLoop=1;jettySize=auto;html=1;exitX=0.5;exitY=1;exitDx=0;exitDy=0;exitPerimeter=0;fontSize=16;" parent="Ns2UMeAKsRZ49Lcyyu3y-1" source="4l1yy5Mn1jNInfXvyx_c-30" target="4l1yy5Mn1jNInfXvyx_c-37" edge="1">
          <mxGeometry relative="1" as="geometry" />
        </mxCell>
        <mxCell id="4l1yy5Mn1jNInfXvyx_c-30" value="" style="shape=cylinder3;whiteSpace=wrap;html=1;boundedLbl=1;backgroundOutline=1;size=3.310344827586107;fontSize=16;rotation=-90;" parent="Ns2UMeAKsRZ49Lcyyu3y-1" vertex="1">
          <mxGeometry x="347.57" y="224.69" width="20" height="70" as="geometry" />
        </mxCell>
        <mxCell id="4l1yy5Mn1jNInfXvyx_c-39" value="consume" style="edgeStyle=orthogonalEdgeStyle;rounded=0;orthogonalLoop=1;jettySize=auto;html=1;exitX=0.5;exitY=1;exitDx=0;exitDy=0;exitPerimeter=0;entryX=0;entryY=0.5;entryDx=0;entryDy=0;fontSize=16;" parent="Ns2UMeAKsRZ49Lcyyu3y-1" source="4l1yy5Mn1jNInfXvyx_c-31" target="4l1yy5Mn1jNInfXvyx_c-38" edge="1">
          <mxGeometry relative="1" as="geometry" />
        </mxCell>
        <mxCell id="4l1yy5Mn1jNInfXvyx_c-31" value="" style="shape=cylinder3;whiteSpace=wrap;html=1;boundedLbl=1;backgroundOutline=1;size=3.310344827586107;fontSize=16;rotation=-90;" parent="Ns2UMeAKsRZ49Lcyyu3y-1" vertex="1">
          <mxGeometry x="347.57" y="254.69" width="20" height="70" as="geometry" />
        </mxCell>
        <mxCell id="4l1yy5Mn1jNInfXvyx_c-32" value="" style="shape=cylinder3;whiteSpace=wrap;html=1;boundedLbl=1;backgroundOutline=1;size=3.310344827586107;fontSize=16;rotation=-90;" parent="Ns2UMeAKsRZ49Lcyyu3y-1" vertex="1">
          <mxGeometry x="100" y="71.91" width="20" height="70" as="geometry" />
        </mxCell>
        <mxCell id="4l1yy5Mn1jNInfXvyx_c-34" value=": Partition" style="text;html=1;align=center;verticalAlign=middle;resizable=0;points=[];autosize=1;strokeColor=none;fillColor=none;fontSize=16;" parent="Ns2UMeAKsRZ49Lcyyu3y-1" vertex="1">
          <mxGeometry x="151" y="96.91" width="80" height="20" as="geometry" />
        </mxCell>
        <mxCell id="4l1yy5Mn1jNInfXvyx_c-36" value="Server" style="whiteSpace=wrap;html=1;aspect=fixed;fontSize=16;" parent="Ns2UMeAKsRZ49Lcyyu3y-1" vertex="1">
          <mxGeometry x="560" y="116.19" width="80" height="80" as="geometry" />
        </mxCell>
        <mxCell id="4l1yy5Mn1jNInfXvyx_c-37" value="Server" style="whiteSpace=wrap;html=1;aspect=fixed;fontSize=16;" parent="Ns2UMeAKsRZ49Lcyyu3y-1" vertex="1">
          <mxGeometry x="560" y="219.19" width="80" height="80" as="geometry" />
        </mxCell>
        <mxCell id="4l1yy5Mn1jNInfXvyx_c-38" value="Server 1" style="whiteSpace=wrap;html=1;aspect=fixed;fontSize=16;" parent="Ns2UMeAKsRZ49Lcyyu3y-1" vertex="1">
          <mxGeometry x="560" y="323.19" width="80" height="80" as="geometry" />
        </mxCell>
        <mxCell id="a59D_WhTs-mvnQTqEzZh-0" value="" style="sketch=0;outlineConnect=0;fontColor=#232F3E;gradientColor=none;fillColor=#000000;strokeColor=none;dashed=0;verticalLabelPosition=bottom;verticalAlign=top;align=center;html=1;fontSize=12;fontStyle=0;aspect=fixed;pointerEvents=1;shape=mxgraph.aws4.topic_2;" parent="Ns2UMeAKsRZ49Lcyyu3y-1" vertex="1">
          <mxGeometry x="80" y="127.57" width="33.10666666666666" height="48.72" as="geometry" />
        </mxCell>
        <mxCell id="a59D_WhTs-mvnQTqEzZh-1" value=": MQTT Topic" style="text;html=1;align=center;verticalAlign=middle;resizable=0;points=[];autosize=1;strokeColor=none;fillColor=none;fontSize=16;" parent="Ns2UMeAKsRZ49Lcyyu3y-1" vertex="1">
          <mxGeometry x="113.11000000000001" y="140.29000000000002" width="110" height="20" as="geometry" />
        </mxCell>
        <mxCell id="a59D_WhTs-mvnQTqEzZh-6" value="Consumer Group" style="text;html=1;align=center;verticalAlign=middle;resizable=0;points=[];autosize=1;strokeColor=none;fillColor=none;fontSize=16;" parent="Ns2UMeAKsRZ49Lcyyu3y-1" vertex="1">
          <mxGeometry x="530" y="84.69" width="140" height="20" as="geometry" />
        </mxCell>
        <mxCell id="a59D_WhTs-mvnQTqEzZh-14" value="" style="rounded=0;whiteSpace=wrap;html=1;fontSize=16;" parent="Ns2UMeAKsRZ49Lcyyu3y-1" vertex="1">
          <mxGeometry x="270" y="430" width="170" height="150" as="geometry" />
        </mxCell>
        <mxCell id="AGWRHIvVmaDSw_wE6bLP-4" value="Topic" style="text;html=1;align=center;verticalAlign=middle;resizable=0;points=[];autosize=1;strokeColor=none;fillColor=none;fontSize=16;" parent="Ns2UMeAKsRZ49Lcyyu3y-1" vertex="1">
          <mxGeometry x="330" y="184.69" width="50" height="20" as="geometry" />
        </mxCell>
        <mxCell id="AGWRHIvVmaDSw_wE6bLP-11" value="subscribe" style="edgeStyle=orthogonalEdgeStyle;rounded=0;orthogonalLoop=1;jettySize=auto;html=1;fontSize=16;entryX=0.5;entryY=1;entryDx=0;entryDy=0;" parent="Ns2UMeAKsRZ49Lcyyu3y-1" source="AGWRHIvVmaDSw_wE6bLP-5" target="4l1yy5Mn1jNInfXvyx_c-28" edge="1">
          <mxGeometry relative="1" as="geometry" />
        </mxCell>
        <mxCell id="AGWRHIvVmaDSw_wE6bLP-5" value="" style="sketch=0;outlineConnect=0;fontColor=#232F3E;gradientColor=none;fillColor=#000000;strokeColor=none;dashed=0;verticalLabelPosition=bottom;verticalAlign=top;align=center;html=1;fontSize=12;fontStyle=0;aspect=fixed;pointerEvents=1;shape=mxgraph.aws4.topic_2;" parent="Ns2UMeAKsRZ49Lcyyu3y-1" vertex="1">
          <mxGeometry x="334.46" y="462.72" width="33.10666666666666" height="48.72" as="geometry" />
        </mxCell>
        <mxCell id="AGWRHIvVmaDSw_wE6bLP-6" value="client 1 reply topic" style="text;html=1;align=center;verticalAlign=middle;resizable=0;points=[];autosize=1;strokeColor=none;fillColor=none;fontSize=16;" parent="Ns2UMeAKsRZ49Lcyyu3y-1" vertex="1">
          <mxGeometry x="284.12" y="520" width="140" height="20" as="geometry" />
        </mxCell>
        <mxCell id="AGWRHIvVmaDSw_wE6bLP-8" style="edgeStyle=orthogonalEdgeStyle;rounded=0;orthogonalLoop=1;jettySize=auto;html=1;exitX=0.5;exitY=1;exitDx=0;exitDy=0;fontSize=16;" parent="Ns2UMeAKsRZ49Lcyyu3y-1" source="4l1yy5Mn1jNInfXvyx_c-38" target="AGWRHIvVmaDSw_wE6bLP-5" edge="1">
          <mxGeometry relative="1" as="geometry">
            <Array as="points">
              <mxPoint x="600" y="490" />
            </Array>
          </mxGeometry>
        </mxCell>
        <mxCell id="AGWRHIvVmaDSw_wE6bLP-9" value="publish" style="edgeLabel;html=1;align=center;verticalAlign=middle;resizable=0;points=[];fontSize=16;" parent="AGWRHIvVmaDSw_wE6bLP-8" vertex="1" connectable="0">
          <mxGeometry x="0.1202" y="-1" relative="1" as="geometry">
            <mxPoint as="offset" />
          </mxGeometry>
        </mxCell>
        <mxCell id="AGWRHIvVmaDSw_wE6bLP-12" value="Server 1 got the message!" style="text;html=1;align=center;verticalAlign=middle;resizable=0;points=[];autosize=1;strokeColor=none;fillColor=none;fontSize=16;" parent="Ns2UMeAKsRZ49Lcyyu3y-1" vertex="1">
          <mxGeometry x="530" y="500" width="200" height="20" as="geometry" />
        </mxCell>
        <mxCell id="dL7R0U7f7WtVm5Zo1gjt-0" value="" style="shape=image;verticalLabelPosition=bottom;labelBackgroundColor=default;verticalAlign=top;aspect=fixed;imageAspect=0;image=data:image/png,iVBORw0KGgoAAAANSUhEUgAAAOEAAADhCAMAAAAJbSJIAAABTVBMVEX/////wAAAAAD/xgD/wwD/xwD/xAB9fX2goKDNzc3CwsK9vb2jewA+Pj6Ojo59XgAaGhpoTgBWVlbz8/P/vQCWlpaIiIh0dHTm5uba2trBkgBERETr6+vtsgD0uAAxMTHOmwDapABkZGStggCurq51WABfX18RERFTPwBLS0uRbQBFNAAtLS3KmAC+jwCZcwA4KgATDgBsUQDhqQBRPQApHwCEYwBdRgAzJgAXEQBJNwArIAAkJCRtbW0hGQCzhgCopJpzbmH/++//xSj/46T07dz/68ItKBm+u7KZk4JeWUw5NSqDfm/Y1c1HQSuMiH+yq5nh3tQxLiNjXk9OS0NUTjvIxLjh28uZkn5ORS2xp47/zkNaTSnEuJv/9Nl6bU3/02k3MR+3l0rUsmGQhGfVy7D/8MwnFgD/6LSDdVHq4cmjlnX/z1n/2ofvx2lYhomUAAAULUlEQVR4nO1d6V8bR9LWnOYGIyFARrLEYUAYxGEjwBgwjjc4iWMTJ86e2c3u+2avvPv/f3ynp6vv7pnRqEeS96fnm47p6We6uqq6qrqnVBpjjDHGGGOMkUB5dWqzurz+6KkLePzkwdzm1Ep52B2zgbXppUVKTMHTJ0tTnzPNtc1lIzcO28vTa8Puah6szj3OQo+I7dzqsDvcG1arPbAjQ/n5kCwvXfbOD4/kxOcwKVdfGglcHe7sdLvdnYtDM8nlUR/IyV0ds4ft6+aJ4/teEMPzfKdxsj9zunOk+ffu5LBJJGDykdLfhzPNRsQp9H1HhO+HXhDWa51nyjWzo8pR4XfYaYWBJ1OTeHqB02yfSVc+GkVZXXsidvJio57CjtH0vPrGhXj5y5HTOUtC/87b9SDMRg9IhkG9fS60MTFsSgImBftwUfMzjp44kn5tj2/m8QiJquCcHbeC3ukByaB1zDdVHTYxwCo/gFv13PwwxxOe4+VIDOME16Nuf/yA485ozcZF1puzZt/8MMf956zR9SHzW1lgfdnoSXsmIfRnWLMLK8MkOM06stPwLPFD8OqcqE4NjyA3BWesCCiDH2ywxjeHRfABm4F1mwOI4dWZLzcks7FOOzCv+NU24Ptb9A7LwyDI/NDroAB+CME1vcfLYRJs2ZdQAq81PKtBCZ41wsIIRnajfjUkinQO7jhFTEEG36He+EAFlWrRbnESSiiG1DLODY4gXQw+LJxgBK87cLs4PbgRxBTpKA4ogLM6YIKRvqHRqsGE/8ndLorVMQJIhPXpIAiS5dLzwfFz/AaJ4QzAZlBvuz7AIXT8+sC0DZ2ErSINvQqvSW5c9HKRrHg3ivJFTQg6cOfZYgmSrNlW7wQDftDD3sONATGLS0USJDJ61buIhl2X+3Dt7vc+jQchpyRueNJ798JDd4baT//cPei5ibBZvJwSPTqTYxKGNdf1Ii/T80I/PHCf5/AWgnbR+rQMNzjMpWW8K/egUtvozFy3gjN3I48/FJKlVFEMl/PLaAQ+tOS6uSKPPlkQFxS3WYHm23mG0Pc6PEF3L1dkIDiFy4vJvcGy/ihHzyK3K/Isv6T8vss5mak+LSQyRSzFQQ5nJna67m4pw7flr1z3NAdFj4h6ERZjtw810zhyv14rMYaR0b5x3U4elQwpjQJCGmQIWzlURPDM/TJqghvDUkxxP4fjUCtsENdxwzt5nvuB695HTbyjDF+hFl+557235XgQmXpgm+BaH0MYeTA3qI0byvAKfYzM60zvCtXfL0idgsv9LMcQoj7FbXzFjAUa0tJb9yhHc8EZnctWAT3L4S873pb7HjVxzwi636AvbnOJBJJ5hG27BCG8dqZKle/FFU+eru4JI3Ddd6iNVxxDHFL61iSmUXuoQQ9VU6k/QkTDbuANyp1UbzI46XT3nh8dHXbnN5r1UFdFE9nC26iJTzxB9yvU6nu3q4pp9LAqJwedre7e2eFOd/5AybwS78hqyIY4bEpvGlJVWnfjxJdYImeyJMooAhLcD+6eyDAausZ+e0/856mcOGgUoGsgyK2s7BuuiqPja6HeK2L4XCUYU7wT/AffC5ttXWGmHNUjq32biygoaJb1Ag0syNibOfEIyXgMbzR/+r7MjaEfOPvzhtbctiioxGAs2iMIQqrELnRDSHDWqePIjH/iut/q//M1zMNIOPe39H/BN5YnN3xvT0wntI+SLdfcjzd3nz7d3Sy9muU7dnHdQPULQULfO1GTqGhPJP7q/c3d3c3EN3Qx0pBkBx7HtDWG4HTLQkoYCpWS98IWhONmEBplOUIz9PwDrrDk/Ju7e66xd99pGRIxted+w+0VzY6ldFf5//0Nq5Q6u3ZqrhHC8H11oyRebvEv8o2JmNoiOIWbm1eN4Qv0vb707I75aEYN4h6zMr2Pd7e6ZmI3QbGaRCxsFfaBT1pTjHkYF2eZHMTbDz+YB0+EgR5hqCy6Q1gI26rrA4emIRMEafnefOX9bzPQu7pJ0IlI2RwpwoP0M4Ittwa39kKzDvDiQUxcjH5KGciPn5KujpeUNY1vivcxLNghCKt7dRqiCYF8kFfJ19+/MrGLHJuUpO7X0X8eah5t8BBfb2elv4kbu9aFHHBe711KC7dv9fxu0m59h/6lmx1kItqxiKBo9Es5D63WztMbuVG2x3x5l3rRbXxf7ZMFU2wnNAy2TcfPgSDtxwzNiBwz8CuVvkeio19BVnAzdlxT3JZm8QsU0ZR4m6WhD9QL+zoLv9I3rjnATqKK/VHDgHyMbr7DzZDXlanLHwjDRP1JgNYjxqgxsfk2nG9YWMhuNwf/WQZtE2n+n5mQ/nCf+ncUE5g3PlYPMhg2lOkkbmojIXrro1H8MbmZW7AZW/Dw36fc9l0iQapMbQRrwFgkRtlC1O03Sa2AgB62gmAfZwGPUk19UpLLB3fexjofFofJSUPvOHEU73+HG7lG68UwhFDSD2ZzjwgmJqeIubDhmc7hplIKhOJFqYkieKdbjufEUSWvDi7JB8MFaA4eJEaLiWdqoyITFrQ6z0Kg2DHp7h9xfPOqhboctJww3haDrePvtKKNUgjNlHA4FEnZSCRCYjSFIC47162BYADbaPQ8Z949r8Wi6kAk4veaSyIZPUnLaIDJf2KBIbg06TmUoPnwD8rV9zjL8AINoO/h2vudejyaMIx/VIbx9vVOPT3vhrtlw6mBIE2GHIofVv4gjSKo0FMU8A/qNNTbCeNhhBX+n2SCToaKKc82w4xZoorzE3dpGUcyjtCc8kM+oPYcT0pIsvyZfy4/ZboRieCpQaKCGUYcv6BXQkb0GOmWoMXtuEOYR996dbzB+TnTwl9UMjI8GhZDp/IXuBAWhaiK0fdPXRnn8ch6MLLEbvwlI0GbY7iYeR4SirGk3uLoxTkSx6B1pRCMhxHNToh9/hnd6/Z1VoKEoY15mFmXchy/KK1gI/gsIuEHbQ09hNhEenUsvz/flv6RmV80+vYYZrWHPMK/4ovexgwSDvqYibSm//oj/vC3XhLCkDOxEW2D/TH1Hu5OirPuflPBYQ4znkW+UuWn/8Efeik8Bp/GRkkG5A6zF677DiyQfiz9p0L8RyMuAiTUf8IfspdJkXZt1CvA2iJzTUHYwPPqPPJVXjtSwZ4GjVj7/i/+0M26V9Pm2gLWh1lrej14uN+h+EIksDsqJxHRwvN19Nd/4U97GffCkYoMG+vDDGt8niA822/RpbcVVpxtRMdzKujPb/4efzxrZKLowX52G7kZiNOcZjIXZFtEXGpR+qWSmCbG2IoY3nIUjzLNeA+WJlaC3rgpTV2ImSDET/9RYWliI/YiVYOdWaCYSal5UARigyAwzLIBgRD8oUQZ7quUJFxFDH/B/3/jZqYIBt9OYdQ6bixtkS/NQYQvKn5C/pcgYvibkkDxKH0ugvTbyXODQWym3ZWYqCt6ZcSwtTWfBo8xLP2ImzhLHUKQDTvle5DkTquU9IlSYWv2aCXke6lwOIbELu6lzAliZu0cmQGlpeawPkYI7icX/M7qSZN5iPB73ErKxipiZi3tKcX71Y6SHyupcbnhLszMkA8M/BNEJpki/tOlHYJE1STGhCHIJOaDf8nKUIjugCwkuYm0kscSQ/BME70aMgmFC5FP46TMQtRoRbgK/LfnCQyJR2Ordg8S+Uk2n+TVpVxE9MtJZyYRGxERKQj5b9xWQtoigPPrrBXsw/gkSI3oy1D8mlzdhxB5g5X/ky6DmIfZ8Gslph9AYF8tGaLPFKrL5axgZC6CY4WUgGh2c8YCA1aLx6ZBDGHS29uRAFXeRg1uGkI0EVM80wvUpnJDMoimBwpLbHsHSJGNh6YhJI6+mhH8NaHMNkbkKdHwIwPkOkxOhnUhpdEo06YuUj2vJmYie8G20muA3AjBGmJALNmwu4Pkf22WsoOYmrYEkWeqMlz51XeMwUQ3duf9/6j3I4sM/f2CQ9tCWqLa1KDdVI80xqf3V3GQwt96qEe35sVaY3FT8r7IDimtlNLglk2CRJsaCjKgjo7XNPc3UF+6FSYYffTAsIc5W+VrDr7H1+5pxzCAelW7e7vI3jy9lBIXw/355v7Nm/u7txDidY9rTmrwI2hsgBs9W51eLUeYJmed6+c9kRjL52LCTQ1bsL2H6hQ7azedbAfxhUGjpqsj1ksMWTg9skuQxBTVYlYYiBofuj/a6ew3sp4iHMP3gvpBWzhL+Jkpkw+/2yvUB0C72hpMNA5evTZzOn/anjloNhwtO1+A+nPoBZX6/nXcysa+6SRUOiNsEySxDGVzBz8O8VrBFLVuXNcYDkwxEXToQtyK8TZA0P7RrcSvMVRDpiMU4vu9JHp40CyBdYLs4JacXWNaHuEk7/k9RJEWcXYbGcSEIsU0ilST1PK2QZ9SIYcqzBEBy32YNRmAPGcN4BbIQqWgU3ig9UzxfS0gW5oUn0hpgFTkFEOQHk+T46AAAA4C5tnxjgmSMyMKO6CGeFN5CeKVVEJdbIarEYo7ZAhSiXnOwQIgZd9DwYV0Mcm2FnhS+zrc4iC3PvXznS6EEBBvpshDhYnF6EOfNnNeyPSo5aMGJECWxj3MrQ7zn0VIjk4s+IhP8iag/FMxJ2jJg/VDTWQM6VhBGuyxlYwxgx4N2RzU+awxQXqy9wDeI0CP98ztPfcOdvLlQI4SJiZjcCeYsoPLB3T6PHFtzrMV9/SNkNbG2Y7NmECt4mAoMoIFHUSnAdU2VwMQVI8RHODbSqboTTNsjOiTIMtdDfR1bJv0tgW+GQEhYCVH1sOHyWAvYKkVafq5AzMH/ioWNop5DgfMSvB0eAR5it2C3gAROt1hEuRfhXR0UsQwBlx+fMBzkGCS9cD2y5BQBJ17q9XQ3vi0wvrwzPL7kLw6d6bZEN/aVZ4tZhiFAZwd7ussuXfj7lmbjUGLy9UN4T1IIphKdd15K+9e8xp8unRobyRjWOFf8NhOz2qn8XP40o3ReMUj9/41NB374eh7FSEHV3hMJism+V657UZOneMHdXEj5ii9+VgYRve45fX8dgff85tifdiovGcVsPpY6N2LTk8vBEaFCtLrgGdHYwby2HRF7GV9qXNE72RG2oV5OcT3ViZgSeLonrX3G4lVB6guoVE7fSFfOAImQo/ynNzViOXWRquO3hgfshITH71Y3QuCRmtjS7OFdgTekJuAiQW1x9HiY2++vVFrnjQqjlNp1E+a+9ed+QvdP93LkR0/iuldbc+zYXc055+MlbntXPQW5gbzWjUrmHyQTkhCdfTMQwpWl2bTaQEez3129DDK09Wn6eyq05+RcGpQXt2sLl5quV0uzm1+pmOnwdrk9MRc9QFGdWlzemqoLxQfY4wxxhhjjDHGGGPQWJucWKpGnuDEVIIHv7rtbi8sXF4uyDXwZClbcKkOex2GJsrNSgaeqlmoqWXBmX9pihHQ9aochaWL9UKjC3zMXAnTrHI/yjGqCVeFPo41QgyVwzwWjL2fdvXQpcRHiaFUiC9IocBw3UBQezBtDwwn5hBIUGUp/qSJIG3iv03yF0lgc17M7Ai6YEr4iWf4yEhQt10hO0Nyx6fxJxIBVh4anTyabqr9FRnymw3KhitKpeQg0OP8DInsLwiflF06VeFOhglDB0ti+JS188TE8KWbDPmZ52VItkIpGlDsUo8MWS/kbA9lKLRYnURWpDxZ5b+UemRkSBWZgSHRA9IxorTLa7kYktTomvw9Zch9x1tQXi2JtjM3w8nk9nY1TzwLQ9g0ouQHCEPODopjxd1J3IOZm6FBTKVv6X0XFjms06eiMMQlJqo9JwxZ1kDeS8rJtSWGRJsK+lke2WnpswyVIbrfivotMGS6WdGZnAMoPPT8DGk3eJNIFN26dJFpV52GoTu5qgkjA0M23dRaBvZcBHVKGcqOb5ouZYX7vDE2XdQLQy0mxPZ5u0LBJq+W4fZKmQebuEaGZLJw8jIl34JcZFqhMIZanTRBkx+YIVOxuu3AbCbyGYP0XJiRIfU6WJR+Hb6hApGdoW618IDNlQnp77qCGyamvAfeB0M6tdnzVO7fA0PZi4kvojMSM2SjpNVc9Fdez/bDkHyzLX9xqfwlfR6WxNUSsJAYTvB/V0H/zavNfhjSZ0bEngwqe4Ta2cXlngSGkpFYLSkMl/i/q6C1S7za7IshsQ3wyDQTsyeG4lScEEYlE0P6b2sMieoEMSWzhNPkvTHkp+Ki2OdMUkotnDUplTQLWZlyBrJHhtyiEKsSyVokaxp2tV7TzC7zYP5fEkOyalkWbsA5OT0yZJ/hrhLDZGvBGVcdQ0mfs+eRxFBY0BMR4tdTvTIk/SETieqOLBafybDW4st+KZ0BSQzpv9CfSHSB93uptVhbYeB+VxhiTrPCJ8aQWTzV8ebDG/y3Rr801fOOQZTbS07X87/3YvHJVxHoB5lhkufNwqvCqjz/2iIGpVWmqylhD0EOhgJkhmz1BMO8Tm5Q5gI4llZPGER/Xj6R/18IQy6IEc9Epi62OasgKNp+GcoRI6mr/TKkU4sw5Gp145ESYlAAccL1y7Cc3Lx1hkokSvHX5exAvwyVO4jFXKov3i9DQWhQNHHRlSAZkr4ZShbv0vDr+hIPTSQqK0PlkcohD3kZ0zfDkti+9AAN0UR6hmwOhiV9MSDBguzP9c9QTFRKVXkGhtRgpTGkSRiOYfmxtk2A4rD2zzApQVYIw5I69RjUTHL/DAUxlbMYxTDU2CiC7exjmB5NJOC3WsjtpzFknpaeIQ0QShls3f4ODCXjv7Y4Gwfad+Uk+JPd3d1Hjx7NsmF/MovwWMkkc8EH9RRqfJEM5lRW4RvDlu3VXfyzZjvp9Lqeos4n7xdrqwQFNJ6ElenNanW5Orc5tVZmfAd10MvAwSLeNt79OJJgFG0e2T7GGGOMMcZ/Of4f5vnIDyYm3REAAAAASUVORK5CYII=;" parent="Ns2UMeAKsRZ49Lcyyu3y-1" vertex="1">
          <mxGeometry x="320.5" y="368.97" width="61.03" height="61.03" as="geometry" />
        </mxCell>
      </root>
    </mxGraphModel>
  </diagram>
</mxfile>
